<svg xmlns="http://www.w3.org/2000/svg" viewBox="0 0 64 64">
  <defs>
    <linearGradient id="fondo" x1="10" y1="8" x2="55" y2="58" gradientUnits="userSpaceOnUse">
      <stop stop-color="#087DB5"/>
      <stop offset="1" stop-color="#06436A"/>
    </linearGradient>
  </defs>
  <rect x="5" y="5" width="54" height="54" rx="16" fill="url(#fondo)"/>
  <path d="M18 15h27a6 6 0 0 1 6 6v28H18a5 5 0 0 1-5-5V20a5 5 0 0 1 5-5Z" fill="#EAF9FF" stroke="#AEE9FF" stroke-width="2"/>
  <path d="M18 15v34M13 24h7M13 33h7M13 42h7" fill="none" stroke="#FFD100" stroke-width="3" stroke-linecap="round"/>
  <circle cx="35" cy="25" r="5" fill="#21B5F2"/>
  <path d="M26 39c1.6-5.2 5-7.7 9-7.7s7.4 2.5 9 7.7" fill="#21B5F2"/>
  <path d="M27 19c2.2-.7 5.8 5.7 4.8 7.7l-2.6 1.8c2 4 4.3 6.4 8.3 8.3l1.8-2.6c2-1 8.4 2.6 7.7 4.8-.8 2.8-3.2 4.4-6.3 3.8-8.2-2.1-15.4-9.3-17.5-17.5-.6-3.1 1-5.5 3.8-6.3Z" fill="#06436A" stroke="#fff" stroke-width="1.6" stroke-linejoin="round"/>
</svg>
